<?xml version="1.0" encoding="utf-8"?>
<!-- Generator: Adobe Illustrator 25.1.0, SVG Export Plug-In . SVG Version: 6.00 Build 0)  -->
<svg version="1.1" id="Capa_1" xmlns="http://www.w3.org/2000/svg" xmlns:xlink="http://www.w3.org/1999/xlink" x="0px" y="0px"
	 viewBox="0 0 883.8 355.6" style="enable-background:new 0 0 883.8 355.6;" xml:space="preserve">
<style type="text/css">
	.st0{fill:#584C40;}
	.st1{fill:#BBBF08;}
</style>
<g>
	<g id="XMLID_1_">
		<g>
			<polygon class="st0" points="874.7,193.9 880.2,183.3 883.6,183.3 883.6,202 880.2,202 880.2,189.7 876.3,197.6 873.2,197.6 
				869.2,189.7 869.2,202 865.8,202 865.8,183.3 869.2,183.3 			"/>
			<polygon class="st0" points="862.7,183.3 862.7,186.3 857.7,186.3 857.7,202 854.4,202 854.4,186.3 849.4,186.3 849.4,183.3 			
				"/>
			<path class="st0" d="M812.1,280.4l-2,0.7c-0.4,0.1-0.6-0.2-0.9-0.8c-1.4-2.7-5-9-7.7-10.9c-2.7-1.6-11.5-1.8-15-1.8h-2.7v52.1
				c0,7.4,1,9.4,3.3,9.4h5.7c0.4,0,0.6,0.4,0.6,0.9v2c0,0.6-0.2,1-1,1c-1,0-4.1-0.3-14.7-0.3c-10,0-14.1,0.3-15.5,0.3
				c-0.6,0-0.8-0.2-0.8-0.9v-2.2c0-0.6,0.3-0.8,0.7-0.8h5.6c1.9,0,3.1-1.2,3.2-2.6c0.3-2.5,0.3-32.4,0.3-34.4v-24.4h-2.7
				c-3.1,0-10.2,0-14.3,1.4c-3.1,1.4-6.8,7.8-8.7,11.1c-0.3,0.5-0.6,0.9-1.1,0.7l-2-0.7c-0.4-0.2-0.5-0.5-0.4-1l4.7-18
				c0.2-1.4,0.8-1.8,1.2-1.8c0.6,0,1,0.4,1.6,1c1.9,2,3.9,2.4,6.6,2.5c5.3,0.2,9.4,0.6,19,0.6h5.3c10.8,0,14.9-0.4,19.4-0.6
				c1.9-0.1,5.6-1.5,7-2.5c0.8-0.6,1.2-1,1.8-1c0.6,0,0.8,0.4,1,1.6c0.2,1.8,2.2,13.9,2.9,18.6C812.6,280.1,812.4,280.3,812.1,280.4
				z"/>
			<path class="st0" d="M795.1,221.9c-0.3,0-0.6,0-0.9,0v-0.4C794.5,221.7,794.8,221.8,795.1,221.9z"/>
			<path class="st0" d="M794.2,223.9c3.5,0.5,6.4,3.9,0.9,3.9c-0.4,0-0.8,0-1.1,0c-1.8-0.2-3.5-0.9-4-2h4.2V223.9z"/>
			<path class="st0" d="M794.2,221.5v0.4c-1.4,0-2.9,0-4.3,0c0-0.7,0-1.3,0-2h1.1C792.1,220.5,793.1,221,794.2,221.5z"/>
			<path class="st0" d="M794.2,220v1.5c-1.1-0.5-2.1-1-3.2-1.5H794.2z"/>
			<path class="st0" d="M793.3,223.8c0.3,0,0.6,0,0.9,0.1v1.9H790c-0.1-0.2-0.1-0.4-0.1-0.5c0-0.5,0-1,0-1.4
				C791,223.8,792.1,223.8,793.3,223.8z"/>
			<path class="st0" d="M794.2,221.9v1.9c-0.3-0.1-0.6-0.1-0.9-0.1c-1.1,0-2.3,0-3.4,0c0-0.6,0-1.2,0-1.8
				C791.3,221.9,792.8,221.9,794.2,221.9z"/>
			<path class="st0" d="M786.1,163.8c4.6,4.6,6.8,9.7,6.8,15.4c0,5.5-2.4,10.8-6.1,14.9c-4,4.5-9.9,7-16.4,7c-6.2,0-11.4-1.8-15.8-7
				c-4.3-5.1-5.3-9.2-5.3-15.2c0-4.7,2.3-11.5,8.2-16.2c4.8-3.9,9.9-4.7,13.9-4.7C777.9,158,782.8,160.6,786.1,163.8z M771.1,197
				c6.5,0,9.8-8.1,9.8-18.1c0-10.8-5.7-17-10.2-17c-2.5,0-4.5,0.8-6.2,2.6c-3,3.4-4.2,7.5-4.2,14.7c0,5.7,0.4,9.4,3,13.6
				C765.1,195.5,767.2,197,771.1,197z"/>
			<path class="st0" d="M791,220h-1.1c0-0.2,0-0.4,0-0.6C790.3,219.6,790.6,219.8,791,220z"/>
			<path class="st0" d="M790,225.8h-94.8c0-0.7,0-1.3,0-2c31.5,0,63.1,0,94.7,0c0,0.5,0,1,0,1.4C789.9,225.4,789.9,225.6,790,225.8z
				"/>
			<path class="st0" d="M789.9,221.9c0,0.6,0,1.2,0,1.8c-31.5,0-63.1,0-94.7,0c0-0.6,0-1.2,0-1.8
				C726.8,221.9,758.3,221.9,789.9,221.9z"/>
			<path class="st0" d="M716.5,159.1c0.6,0,0.8,0.4,0.7,0.8l-1,4.1c-0.1,0.4-0.4,0.6-1,0.6h-11.8c-0.2,4.1-0.3,8.8-0.3,13.1v8.8
				c0,7.6,3.2,9.2,5.2,9.2c2.2,0,4.3-0.5,5.7-1.2c0.7-0.3,1-0.3,1.2,0.2l0.6,1.2c0.2,0.6,0,1-0.4,1.4c-1.4,1-5.5,3.9-12.3,3.9
				c-5.9,0-10.3-4.7-10.3-8.8c0-3.5,0.3-11.3,0.3-15.1v-12.7h-5.7c-0.8,0-1.4-0.4-1.4-1.4c0-0.8,0.6-1.4,1.9-1.9
				c2.7-1,11.2-8.2,13.4-12.3c0.4-0.8,1-1,1.6-1c0.8,0,1.2,0.6,1.2,1.4l-0.4,9.7H716.5z"/>
			<path class="st0" d="M704.7,280.7c-0.4-0.6-8.4-9.6-10.8-11c-2.1-1.2-4.7-2.4-7.4-2.5l-14.9-0.4l-0.2,28.2c2.9,0,10-0.2,11.1-0.5
				c2.1-0.4,3.3-1.2,4.5-3.5c0.6-1.3,1.6-3.7,1.6-5.5c0-0.6,0.4-0.8,0.8-0.8l2.5,0.2c0.4,0,0.7,0.2,0.6,0.8c-0.2,1.6-0.2,8-0.2,10.6
				c0,3.9,0.4,8.6,0.6,10.8c0,0.5-0.2,0.6-0.8,0.7l-2.1,0.4c-0.4,0.1-0.6-0.1-0.8-0.7c-0.4-1.6-1.1-3.7-1.6-4.9
				c-0.9-2-2.7-3.3-4.9-3.5c-3.5-0.4-8.2-0.6-11.3-0.6l0.1,5.9c0.1,5.3,0.3,14.9,0.3,16.6c0,5.1,1.8,7,3.9,7.6
				c1.6,0.4,3.9,0.8,7.6,0.8c1.8,0,6.3-0.2,8.2-0.4c1.8-0.2,5.5-1.2,8-3.3c1.8-1.6,7.2-8,9.1-10.4c0.4-0.5,0.7-0.6,1.1-0.4l1.6,1
				c0.3,0.2,0.4,0.5,0.2,1l-4.7,14.7c-0.3,0.9-1,1.5-2.2,1.5c-0.5,0-2.6-0.1-8.7-0.2c-6.2,0-16.2-0.1-32.5-0.1
				c-3.6,0-6.2,0.1-8.3,0.1c-2,0.1-3.3,0.2-4.2,0.2c-0.6,0-0.8-0.2-0.8-0.8v-2.4c0-0.6,0.2-0.8,1-0.8h3.3c4.5,0,4.9-0.6,4.9-4.2V292
				c0-8-0.2-20.1-0.4-21.5c-0.4-2.6-1.4-3.4-4.3-3.4h-3.7c-0.4,0-0.6-0.2-0.6-0.7v-2.5c0-0.5,0.1-0.7,0.6-0.7
				c2.2,0,5.7,0.4,13.7,0.3h2.7c4.3,0,26.8-0.2,31.1-0.2c1.6,0,3.4-0.1,3.9-0.1s0.7,0.2,0.8,0.6c0.4,1.3,4.1,14.6,4.5,15.5
				c0.2,0.6,0.1,0.9-0.3,1.1l-1.8,0.8C705.3,281.2,705,281.1,704.7,280.7z"/>
			<path class="st0" d="M695.2,225.8c0,0.2,0,0.4,0,0.6c-0.4-0.2-0.8-0.4-1.2-0.6H695.2z"/>
			<path class="st0" d="M695.2,223.8c0,0.7,0,1.3,0,2h-1.2c-1.1-0.5-2.1-1-3.2-1.5v-0.4C692.3,223.8,693.8,223.8,695.2,223.8z"/>
			<path class="st0" d="M695.2,220.5c0,0.5,0,0.9,0,1.4c-1.1,0-2.3,0-3.4,0C692.9,221.5,694.1,221,695.2,220.5z"/>
			<path class="st0" d="M694.1,225.8h-3.2v-1.5C691.9,224.7,693,225.2,694.1,225.8z"/>
			<path class="st0" d="M690.9,220h99c0,0.7,0,1.3,0,2c-31.6,0-63.1,0-94.7,0c0-0.5,0-0.9,0-1.4c-1.1,0.5-2.3,0.9-3.4,1.4
				c1.1,0,2.3,0,3.4,0c0,0.6,0,1.2,0,1.8c-1.4,0-2.9,0-4.3,0V220z"/>
			<path class="st0" d="M794,227.7c-34.1,0-68.1,0-102.2,0c-1.3,0-5.2-0.5-5.2-2.5c0-1.9,0-3.9,0-5.8c0-1.3,2.7-1.4,3.4-1.4
				c34.4,0,68.9,0,103.3,0c1.3,0,5.2,0.5,5.2,2.5c0,1.9,0,3.9,0,5.8C798.5,227.6,796.2,228,794,227.7c0.4,0,0.8,0,1.1,0
				c5.5,0,2.6-3.3-0.9-3.9v-1.9c0.3,0,0.6,0,0.9,0c-0.3-0.1-0.6-0.3-0.9-0.4V220H791c-0.4-0.2-0.8-0.4-1.1-0.6c0,0.2,0,0.4,0,0.6
				h-99v3.8c-0.3,0-0.6,0-0.9,0c0.3,0.2,0.6,0.3,0.9,0.4v1.5h3.2c0.4,0.2,0.8,0.4,1.2,0.6c0-0.2,0-0.4,0-0.6H790
				C790.4,226.8,792.2,227.5,794,227.7z"/>
			<path class="st0" d="M690.9,223.8v0.4c-0.3-0.1-0.6-0.3-0.9-0.4C690.3,223.8,690.6,223.8,690.9,223.8z"/>
			<path class="st0" d="M618.9,329.7v2.4c0,0.6-0.2,0.8-0.8,0.8c-1,0-4.5-0.3-13.5-0.3c-8.2,0-11.9,0.3-13.3,0.3
				c-0.4,0-0.6-0.2-0.6-0.8v-2.4c0-0.4,0.2-0.6,0.6-0.6h1.4c1.8,0,2-1.8,1.6-2.5c-1-2-16.8-24.6-18.4-26.2c-1-1-2.1-1.4-3.3-1.4
				h-1.8v7.2c0,4.9,0.2,19.2,0.3,20.6c0.1,1.4,1.1,2.1,2.2,2.1h3.7c0.4,0,0.8,0.2,0.8,0.5v2.6c0,0.4-0.2,0.8-0.6,0.8
				c-1.2,0-4.1-0.3-12.5-0.3c-8.4,0-11.5,0.3-12.5,0.3c-0.4,0-0.6-0.2-0.6-0.7v-2.6c0-0.4,0.2-0.6,0.6-0.6h3.5
				c1.8,0,2.5-0.8,2.6-1.9c0.1-0.8,0.3-18.6,0.3-30.7v-5.7c0-1.8-0.2-20.5-0.2-21.4c0-1.2-0.6-2.3-2.9-2.3h-2.9
				c-0.6,0-0.8-0.2-0.8-0.7v-2.6c0-0.4,0.2-0.6,0.8-0.6c1.2,0,4.1,0.3,12.5,0.3c7.6,0,10.8-0.3,12.1-0.3c0.6,0,0.8,0.2,0.8,0.7v2.5
				c0,0.6-0.2,0.8-0.8,0.8h-3.1c-2,0-2.9,0.6-2.9,2.8c0,1.6-0.4,16.8-0.4,21.5v4.3h1.8c1.2,0,2.2-0.4,3.3-1.4
				c1.9-1.6,18.9-22.8,19.9-24.2c1.4-2,0.2-3.1-1.6-3.1h-1.5c-0.4,0-0.5-0.2-0.5-0.7v-2.4c0-0.6,0.2-0.8,0.6-0.8
				c1.2,0,5.1,0.3,11.5,0.3c3.9,0,7.2-0.3,8.4-0.3c0.6,0,0.8,0.2,0.8,0.7v2.5c0,0.6-0.4,0.8-0.8,0.8h-2c-1.4,0-3.5,0.4-5.5,1.7
				c-4.6,3-18.4,19-22.1,23.8c3.9,4.9,23.9,30.7,26.8,34.1c1.8,2.1,4.3,2.3,5.9,2.3h2.2C618.7,329,618.9,329.4,618.9,329.7z"/>
			<path class="st0" d="M600.2,179.6c0,11.1-3.1,18.6-9.6,25.6c-9.6,10.4-24.8,10.5-31.5,10.5c-3.7,0-13.7-0.3-18.6-0.3
				c-8.6,0-12.5,0.3-13.9,0.3c-0.4,0-0.6-0.2-0.6-0.9v-2.4c0-0.4,0.2-0.6,0.8-0.6h5.7c2,0,2.9-0.8,3.2-2.4c0.3-2,0.7-24,0.7-31.5
				v-7.4c0-2.5-0.4-16.4-0.6-17.9c-0.2-2.3-1.6-2.7-3.5-2.7h-5.3c-0.4,0-0.8-0.2-0.8-0.7v-2.6c0-0.4,0.4-0.6,0.9-0.6
				c2.8,0,7.9,0.3,14.8,0.3c4.9,0,9.8-0.3,14.7-0.3c13.1,0,23.7,1.3,32.7,8.9C595.7,160.1,600.2,168.3,600.2,179.6z M579.7,202.1
				c4.1-5.3,7-13.3,7-22.3c0-7.8-3.3-16.2-7.8-21.3c-5.3-5.7-13.9-9.2-21.9-9.2c-2.2,0-4.7,0-6.2,1c-1.4,0.8-1.8,2.3-1.8,4.3
				c-0.2,4.1-0.2,16.8-0.2,18.4v7c0,1.2,0.2,17.8,0.2,23.9c0,1.9,0.4,3.5,1.8,5.5c1.2,1.9,4.9,2.6,8.6,2.6
				C567,212,574.8,208.5,579.7,202.1z"/>
			<path class="st0" d="M475.7,301.6c-0.4,0-2.1,0.1-3.1,0.2v5.3c0,5.9,0.2,16.8,0.4,18.3c0.3,2,1,3.7,2.5,3.7h4.9
				c0.6,0,0.8,0.3,0.8,0.7v2.3c0,0.7-0.3,0.9-1.1,0.9c-1.3,0-3.2-0.3-13.4-0.3c-9.6,0-11.9,0.3-12.9,0.3c-0.6,0-0.8-0.3-0.8-0.9
				v-2.2c0-0.5,0.2-0.8,0.6-0.8h3.3c2.1,0,3.7-0.6,3.7-3.2c0.2-9.8,0.2-19,0.2-28.1V272c0-3.3-1.4-4.9-3.1-4.9h-3.8
				c-0.5,0-0.7-0.2-0.7-0.6v-2.6c0-0.5,0.2-0.7,0.7-0.7c0.7,0,3.8,0.3,13.4,0.3c5.5,0,14.5-0.3,17.4-0.3c7.8,0,13.9,2.6,17.8,6.2
				c3.5,3.1,5.3,7.2,5.3,10.9c0,12.3-7.4,17.4-18.2,19.2v0.4c2.7,1,4.5,2.7,5.9,4.5c1.2,1.6,7.2,10.8,8,11.9c0.6,1,6.8,9.8,8.3,11.1
				c1.9,1.7,4.6,1.9,6.9,1.9c0.6,0,0.8,0.3,0.8,0.7v2c0,0.7-0.2,1-0.8,1c-0.8,0-3.3-0.3-9.6-0.3c-2.7,0-6.5,0.2-8.6,0.3
				c-1.2-0.9-3-3.5-4.3-5.6c-1.8-2.7-5.6-9.8-6.5-11.3c-1-1.8-3.7-6.2-5.3-8.4C482.1,304.2,479.8,301.6,475.7,301.6z M472.8,298.2
				c1.4,0.2,2.5,0.4,3.7,0.4c15.2,0,18.4-12.3,18.4-16.8c0-4.5-1.9-8.7-4.3-10.9c-3.5-3.1-8-4.2-12.9-4.2c-1.6,0-2.7,0.1-3.5,0.6
				c-0.8,0.5-1.2,1.7-1.2,2.8L472.8,298.2z"/>
			<path class="st0" d="M491,146.6v2.2c0,0.6-0.2,1-0.6,1h-2.7c-2,0-2.9,1.6-3.2,5.2c-0.5,6.6-1.5,23.1-1.5,33v25.8
				c0,1.4,0,2.7-1.2,2.7c-1.4,0-2.5-0.8-3.3-1.6c-0.8-1-6.1-7-12.1-14.3c-6.8-8.4-14.5-17.6-15.6-19.2c-1.4-1.4-17-20.9-18.2-22.3
				h-0.6v11.9c0,16.6,0.8,30.3,1,33.3c0.2,4.9,1.4,7.2,4.9,7.2h2.6c0.8,0,0.8,0.4,0.8,0.9v2.2c0,0.6,0,0.8-0.8,0.8
				c-1,0-6.9-0.3-10.6-0.3c-2.5,0-9.2,0.3-10.2,0.3c-0.4,0-0.6-0.2-0.6-0.9v-2.4c0-0.2,0.2-0.6,0.6-0.6h3.3c2.5,0,3.9-2.1,4.4-8.1
				c0.1-1.8,0.7-15.4,0.7-31.1v-12.4c0-5.9-3.3-10.4-7.6-10.4h-3.1c-0.4-0.1-0.6-0.3-0.6-0.7v-2.6c0-0.4,0.2-0.6,0.6-0.6
				c0.5,0,1.3,0.1,3,0.2c1.8,0.1,4.4,0.1,8.7,0.1c1.7,0,3.1-0.1,4.3-0.2c1.3,0,2.1-0.1,2.7-0.1c1.2,0,1.8,0.3,2.3,0.9
				c1,1,20.1,25,22.1,27.8c1.4,1.6,16.6,20.5,18.2,22.5h0.4v-10.2c0-8.6,0-13.5-0.2-18.4c-0.2-3.7-0.6-13.3-1.1-15
				c-0.7-2.3-2.8-3.7-5.2-3.7h-3.1c-0.6,0-0.6-0.4-0.6-0.9v-2.2c0-0.6,0-0.8,0.8-0.8c1.2,0,4.3,0.3,10.9,0.3c5.9,0,8.2-0.3,9.4-0.3
				C490.8,145.9,491,146.3,491,146.6z"/>
			<path class="st0" d="M419,329.7v2c0,0.6-0.2,1.2-1,1.2c-1.8,0-3.7-0.3-14.5-0.3c-8.2,0-11.5,0.3-13.7,0.3c-0.8,0-1-0.6-1-1.2v-2
				c0-0.6,0.2-0.8,0.8-0.8h2.5c2.7,0,3.5-1,2.9-3.6c-0.8-3.5-4.7-16-5.9-19.7h-22.7c-0.8,2.2-5.6,16.2-6.1,18.9
				c-0.2,0.8-0.2,1.6-0.2,2.1c0,1.3,1.6,2.3,3.5,2.3h4.1c0.8,0,1,0.2,1,0.5v2.4c0,0.6-0.2,1-0.8,1c-1.4,0-5.5-0.3-12.3-0.3
				c-7.2,0-9.4,0.3-10.8,0.3c-0.6,0-0.6-0.6-0.6-1.3v-1.9c0-0.6,0.2-0.8,0.6-0.8h2.9c2.7,0,4.5-1.4,6.2-4.4c1-1.8,8-19.4,10.9-27.6
				l9.6-25.6c0.2-1,0.8-2.7,0.2-3.3c-0.3-0.3-0.6-0.9-0.6-1.2c0-0.4,0.2-0.8,1-1c3.1-0.8,8.5-3.7,9.7-4.9c0.6-0.6,1-1,1.5-1
				c0.6,0,1,1.2,1.2,1.8c1.8,6.1,9.4,28,11.1,34.2c2.3,7.6,8.6,25.8,10,28.4c1.8,3.3,4.3,4.5,6.3,4.5h3.1
				C418.8,329,419,329.2,419,329.7z M368,301.9h20.3c-1-2.8-7.6-25.1-8.2-27.1c-0.4-1.2-0.6-1.8-1-1.8c-0.6,0-1,0.4-1.3,1.3
				C377.5,275.6,368.7,299.6,368,301.9z"/>
			<path class="st0" d="M386.2,212.4v2.1c0,0.6-0.2,1.2-1,1.2c-1.8,0-3.7-0.3-14.5-0.3c-8.2,0-11.5,0.3-13.7,0.3c-0.8,0-1-0.6-1-1.2
				v-2c0-0.6,0.2-0.8,0.8-0.8h2.5c2.7,0,3.5-1,2.9-3.6c-0.8-3.5-4.7-16-5.9-19.6h-22.7c-0.8,2.2-5.6,16.2-6.1,18.9
				c-0.2,0.8-0.2,1.6-0.2,2.1c0,1.3,1.6,2.3,3.5,2.3h4.1c0.8,0,1,0.2,1,0.5v2.4c0,0.6-0.2,1-0.8,1c-1.4,0-5.5-0.3-12.3-0.3
				c-7.2,0-9.4,0.3-10.8,0.3c-0.6,0-0.6-0.6-0.6-1.3v-1.9c0-0.6,0.2-0.8,0.6-0.8h2.9c2.7,0,4.5-1.4,6.3-4.4c1-1.8,8-19.4,11-27.6
				l9.6-25.6c0.2-1,0.8-2.7,0.2-3.3c-0.3-0.3-0.6-0.9-0.6-1.2c0-0.4,0.2-0.8,1-1c3.1-0.8,8.5-3.7,9.7-4.9c0.6-0.6,1-1,1.5-1
				c0.6,0,1,1.2,1.2,1.8c1.8,6.1,9.4,27.9,11.1,34.2c2.3,7.6,8.6,25.8,10,28.4c1.8,3.3,4.3,4.5,6.2,4.5h3.1
				C386,211.8,386.2,212,386.2,212.4z M335.2,184.6h20.3c-1-2.8-7.6-25.1-8.2-27.1c-0.4-1.2-0.6-1.8-1-1.8c-0.6,0-1,0.4-1.3,1.3
				C344.7,158.3,335.9,182.3,335.2,184.6z"/>
			<path class="st0" d="M313.3,329.7v2.2c0,0.6,0,1-0.8,1c-1.2,0-5.9-0.3-14.5-0.3c-9.6,0-13.3,0.3-14.7,0.3c-0.6,0-0.8-0.4-0.8-0.9
				v-2.2c0-0.6,0.2-0.8,0.8-0.8h6.1c1.8,0,2.5-0.6,2.8-3.4c0.1-1,0.3-15,0.3-22.9v-5.5c0-2.9,0-27.2-0.2-27.6H292
				c-0.8,1.4-13.1,29.9-14.3,32.5c-1.5,3.1-11.4,26.2-11.9,27.2c-0.4,0.8-1.2,2.2-2.1,2.2c-0.6,0-1.2-0.6-1.6-1.8
				c-0.4-0.6-13.1-31.1-13.7-32.6c-1.8-4.5-10.8-26.4-11.9-27.6c-0.4,1.4-0.5,26-0.5,27.2c0,1.2-0.1,17.8,0.5,24.1
				c0.4,4.5,1.6,8.2,4.7,8.2h4.3c0.6,0,0.8,0.4,0.8,0.7v2.4c0,0.4-0.2,0.8-1,0.8c-1,0-3.7-0.3-11.2-0.3c-8.4,0-11.7,0.3-12.7,0.3
				c-0.8,0-0.8-0.2-0.8-0.9v-2.4c0-0.2,0-0.6,0.6-0.6h4.5c3.3,0,4.4-3.5,4.9-6.9c0.9-6.8,1.5-30.9,1.5-32.6v-16.7
				c0-3.5-0.5-5.7-4.8-5.7H223c-0.6,0-0.8-0.4-0.8-0.7v-2.6c0-0.2,0.2-0.6,0.8-0.6c1,0,3.5,0.3,13.9,0.3c4.7,0,7.4-0.3,8.6-0.3
				s1.9,0.4,2.3,1.7c3.5,9.2,17.2,41.6,20.1,49.6c0.9-1.8,7.8-17.9,10.4-23.6c1.8-4.1,10.6-24.2,11-26.2c0.3-1,1.5-1.2,3.8-1.2
				c14.3,0.1,17.6-0.3,18.8-0.3c0.4,0,0.6,0.4,0.6,0.9v2c0,0.6-0.2,1-0.8,1h-4.3c-2.5,0-2.7,1.8-2.8,3.8c-0.1,2.1-0.1,21.7-0.1,24.2
				v6.8c0,5.9,0.2,20.1,0.2,21.8c0.1,3.7,1,5.3,2.7,5.3h5.3C313.3,329,313.3,329.4,313.3,329.7z"/>
			<path class="st0" d="M282.8,195.2c0.2,0.2,0.2,0.4,0.2,1c-0.4,0.6-4.3,16.8-4.9,19.4c-2.5-0.1-30.7-0.3-40.7-0.3
				c-8.8,0-12.3,0.3-13.5,0.3c-0.8,0-0.8-0.2-0.8-0.9v-2.2c0-0.6,0-0.8,0.6-0.8h3.9c3.5,0,4.1-1.4,4.1-2.6c0-1.8,0.4-26.2,0.4-32.1
				v-5.5c0-6.2-0.2-16.6-0.4-18.3c-0.2-2.5-0.6-3.5-3.1-3.5h-4.1c-0.6,0-0.8-0.6-0.8-0.9v-2.2c0-0.6,0.2-0.8,0.8-0.8
				c1,0,4.5,0.3,13.5,0.3c10.6,0,14.7-0.3,15.4-0.3c0.8,0,1,0.4,1,0.9v2.2c0,0.4-0.2,0.8-1,0.8h-5.3c-2.9,0-3.3,1-3.3,3.6
				c0,1.4-0.4,16-0.4,22.9v8.4c0,1.8,0,22.9,0.4,27.1h5.5c5.5,0,12.5,0,16.4-0.5c5.5-0.8,11.7-12.5,13.1-16.2
				c0.4-0.4,0.6-0.6,1.2-0.4L282.8,195.2z"/>
			<path class="st1" d="M252.7,0.3c14-0.8,20,13.7,13.1,19.9c-4.7,4.1-44.2,22.2-45.4,23.3C221.1,41.8,239,1.1,252.7,0.3z"/>
			<path class="st1" d="M235.1,47.7c8.2-4.4,19.4,6.1,13.6,18.5c-6,12.8-52.9,15.9-52.9,15.9C196.3,77.8,226.8,51.8,235.1,47.7z"/>
			<path class="st1" d="M220.4,43.4C220.4,43.4,220.4,43.4,220.4,43.4C220.4,43.4,220.3,43.4,220.4,43.4z"/>
			<path class="st1" d="M206.3,48.6c0.4,13.4-38.9,34.5-40.6,35.4c1.3-1.7,16.2-41.8,20.1-47.1C191.2,29.7,205.9,34.9,206.3,48.6z"
				/>
			<path class="st1" d="M173.6,89.9c6.8-6.2,20.2,1.3,18,14.7c-2.4,13.7-46.5,27.9-46.5,27.9C144.4,128.4,166.7,95.8,173.6,89.9z"/>
			<path class="st1" d="M150.8,73.5c7.3,12.2-17.2,49.4-17.2,49.4c-3.1-3-7.8-42.2-6.4-50.8C128.2,63,143.5,61,150.8,73.5z"/>
			<path class="st1" d="M132.6,171.8c6.8-6.1,14.2-11.4,22.4-15c-11.7,13.4-19.9,28.1-27.1,43.4c-7.1,15.3-13,31.1-18.5,47.1
				c-5.4,16-10.4,32.3-15,48.7c-2.4,8.2-4.5,16.4-6.7,24.6L84.7,333c-1,4.1-2,8.3-3,12.2l-0.3,1.3c-1.5,6.2-7.7,10-13.9,8.6
				c-3-0.7-5.4-2.5-7-4.8l-8.2-12.3l-8-12.4c-5.3-8.3-10.5-16.7-15.6-25.2c-5-8.5-10-17-14.8-25.7c-4.8-8.7-9.4-17.5-13.8-26.5
				c7.3,6.8,14.3,13.9,21.1,21.1c6.9,7.2,13.5,14.5,20.1,21.9c6.5,7.4,13,14.9,19.3,22.4l2,2.4c-0.8,4-1.6,8-2.3,12
				c-0.8,4.4-1.5,8.7-2.1,13.4l21.1-5l-9.3-11.5l-7.4-8.9c0.1-0.4,0.2-0.7,0.2-1.1c1.8-8.7,4-17.3,6.3-25.9
				c4.8-17.1,10.6-34,17.9-50.3c7.3-16.3,16.1-32.2,27-46.7C119.8,184.7,125.9,177.9,132.6,171.8z"/>
			<path class="st1" d="M109.8,181.7l-2.9,2.6c-0.3,0.3-0.5,0.4-0.5,0.4c-0.1-0.2-0.2-0.5-0.3-1c-0.3-0.3-0.6-0.5-0.7-0.8
				c0,0,0.2-0.1,0.6-0.2c-0.5-8.5,6-40.9,9.5-48.2c3.7-8.2,19.2-6.3,22.8,6.9C141.2,152.1,118.6,173.8,109.8,181.7z"/>
			<path class="st1" d="M70.3,324.8l9.3,11.5l-21.1,5c0.6-4.7,1.3-8.9,2.1-13.4c0.7-4,1.5-8,2.3-12L70.3,324.8z"/>
		</g>
		<g>
		</g>
	</g>
</g>
</svg>
